# xmcd CD database file
# Copyright (C) 1993-1998 Ti Kan
#
# Track frame offsets:
#  150
#  11952
#  23302
#  39817
#  56217
#  71210
#  86707
#  96810
#  110025
#  120475
#  130552
#  142795
#  159105
#
# Disc length: 2369 seconds
#
# Revision: 1
# Processed by: cddbd v1.4b41PL1 Copyright (c) Steve Scherf et al.
# Submitted via: CDWizzard Release:4.32
#
DISCID=9e093f0d
DTITLE=Varies - Midland Records - Five
DYEAR=1900
DGENRE=
TTITLE0=Rock and Roll Watlz
TTITLE1=Doing Country My Way
TTITLE2=Images of Love
TTITLE3=The Last Time
TTITLE4=The Heart of the Heartland
TTITLE5=The Prince and the Pauper
TTITLE6=Long Gone
TTITLE7=100 Years Ago
TTITLE8=Cajun Wedding
TTITLE9=This May Be The Day
TTITLE10=Bedroom Warrior
TTITLE11=Slow Dance 
TTITLE12=Temptation
EXTD=Disk is a group of songs by many artists.
EXTT0=
EXTT1=
EXTT2=
EXTT3=
EXTT4=
EXTT5=
EXTT6=
EXTT7=
EXTT8=
EXTT9=
EXTT10=
EXTT11=
EXTT12=
PLAYORDER=
